# xmcd
#
# Track frame offsets:
#	150
#	9555
#	20486
#	32677
#	44009
#	57991
#	70741
#	82924
#	99006
#	110161
#	121379
#	132419
#	144441
#	155911
#	167176
#	179614
#	189654
#	201246
#	210024
#	223596
#	236169
#	247966
#	259074
#	271961
#	281276
#	294996
#	315919
#	329599
#
# Disc length: 4520 seconds
#
# Revision: 3
# Processed by: cddbd v1.5.2PL0 Copyright (c) Steve Scherf et al.
# Submitted via: EZCDAudioConverter 7.0.6.1
#
DISCID=9c11a61c
DTITLE=Brenda Lee - The Definitive Collection
DYEAR=2006
DGENRE=Country
TTITLE0=Dynamite
TTITLE1=Sweet Nothin's
TTITLE2=I'm Sorry
TTITLE3=That's All You Gotta Do
TTITLE4=I Want To Be Wanted
TTITLE5=Emotions
TTITLE6=I'm Learning About Love
TTITLE7=You Can Depend ON Me
TTITLE8=Dum Dum
TTITLE9=Fool #1
TTITLE10=Anybody But Me
TTITLE11=Break It To Me Gently
TTITLE12=Everybody Loves Me But You
TTITLE13=Heart IN Hand
TTITLE14=All Alone Am I
TTITLE15=Your Used To Be
TTITLE16=Losing You
TTITLE17=My Whole World IS Falling Down
TTITLE18=I Wonder
TTITLE19=The Grass Is Greener
TTITLE20=As Usual
TTITLE21=Is It True?
TTITLE22=Too Many Rivers
TTITLE23=Coming On Strong
TTITLE24=Nobody Wins
TTITLE25=Big Four Poster Bed
TTITLE26=Tell Me What It's Like
TTITLE27=Rockin' Around The Christmas Tree
EXTD=
EXTT0=
EXTT1=
EXTT2=
EXTT3=
EXTT4=
EXTT5=
EXTT6=
EXTT7=
EXTT8=
EXTT9=
EXTT10=
EXTT11=
EXTT12=
EXTT13=
EXTT14=
EXTT15=
EXTT16=
EXTT17=
EXTT18=
EXTT19=
EXTT20=
EXTT21=
EXTT22=
EXTT23=
EXTT24=
EXTT25=
EXTT26=
EXTT27=
PLAYORDER=
